<svg xmlns="http://www.w3.org/2000/svg" aria-hidden="true" style="position:absolute;width:0;height:0;overflow:hidden">
  <defs>
    <symbol id="icon-logo" viewBox="0 0 144 32">
      <path d="M40.959 26.994q1.435.744 2.419-.478c.984-1.222.735-1.665.239-2.55l-3.774-7.12-2.871 7.81zm-11.27-2.231h3.747l5.131-12.858q.319-.744.239-1.461c-.08-.717-.345-.841-.877-1.089l-4.412-1.913q-.744-.372-1.489 0c-.745.372-.762.62-.797 1.116zm-15.748 0h3.681L16.134 8.558q-.053-.797-.718-1.169c-.665-.372-.966-.23-1.568.053l-4.2 1.806q-.691.266-.771 1.195c-.08.929.009 1.178.186 1.674l4.878 12.645zm-7.535 2.231 3.987-2.338-2.871-7.81-3.774 7.385q-.744 1.488.319 2.417c1.063.929 1.488.735 2.339.345zm14.406-2.231H26.5l1.754-19.34q.106-.744-.399-1.249c-.505-.505-.753-.505-1.249-.505h-5.847q-.85 0-1.276.505c-.426.505-.407.753-.372 1.249zM5.236 30.528q-2.2 0-3.718-1.57C0 27.388 0 26.654 0 25.188q0-.676.239-1.319c.239-.643.336-.85.531-1.265l4.852-9.396q-.798-2.161-.102-4.277c.696-2.116 1.362-2.407 2.698-2.991l4.412-1.806q.85-.32 1.728-.378c.878-.058 1.129.096 1.634.406q.374-1.739 1.701-2.855C19.02.191 19.599.19 20.759.19h5.847q1.74 0 3.066 1.037c1.326 1.037 1.452 1.599 1.701 2.722q.798-.306 1.654-.247c.856.059 1.123.183 1.654.431l4.465 1.806q2.043.782 2.771 2.864c.728 2.082.435 2.75-.15 4.084l4.827 9.662q.225.61.497 1.206c.272.596.272.803.272 1.218q0 2.346-1.677 3.949c-1.677 1.603-2.464 1.603-4.037 1.603q-.61 0-1.153-.245a24 24 0 0 0-1.1-.471l-3.192-1.569H11.106l-3.019 1.569q-.676.278-1.378.497c-.702.219-.959.219-1.473.219zM143.095 27.168a.72.72 0 0 1-.531-.212.8.8 0 0 1-.212-.561v-2.002h-2.139v-.197q-.804 0-1.427-.319c-.623-.319-.737-.506-.971-.88q-.348-.561-.348-1.305-.001-.804.379-1.441a2.8 2.8 0 0 1 1.061-1.001q.683-.38 1.563-.379h2.624q.35 0 .561.212c.211.212.213.329.213.561v6.765a.8.8 0 0 1-.228.546q-.197.212-.547.212zm-5.384-.182q-.245-.212-.228-.47c.017-.258.071-.329.181-.47l1.851-2.412h2.019l-2.595 3.231q-.258.334-.637.319-.378-.015-.591-.197zm2.76-3.868h1.881v-2.806h-1.881q-.607 0-1.061.394a1.22 1.22 0 0 0-.455.986q0 .638.455 1.031.455.394 1.061.394zM134.519 27.168a.8.8 0 0 1-.561-.212.79.79 0 0 1-.213-.561v-6.75q0-.35.213-.561a.8.8 0 0 1 .561-.212q.349 0 .545.212.198.213.197.561v6.75q0 .334-.197.561-.197.212-.545.212m-6.235 0a.74.74 0 0 1-.546-.212.83.83 0 0 1-.197-.561v-6.75q0-.35.197-.561a.74.74 0 0 1 .546-.212q.35 0 .561.212c.211.212.212.329.212.561v6.75q0 .334-.212.561a.76.76 0 0 1-.561.212m.576-3.626v-1.365h5.324v1.365zM117.801 30.717a.76.76 0 0 1-.561-.227.74.74 0 0 1-.212-.546v-6.917q.015-1.199.561-2.154c.546-.955.86-1.138 1.487-1.502q.94-.561 2.124-.561 1.198 0 2.139.561a4 4 0 0 1 1.487 1.502q.561.955.561 2.154c0 1.199-.172 1.517-.516 2.154a3.95 3.95 0 0 1-1.38 1.502 3.7 3.7 0 0 1-1.987.546 3.8 3.8 0 0 1-1.653-.364 4 4 0 0 1-1.274-1.016v4.096a.74.74 0 0 1-.212.546.73.73 0 0 1-.561.227zm3.398-4.854q.774 0 1.38-.364.607-.38.956-1.016.364-.652.364-1.456 0-.819-.364-1.456a2.57 2.57 0 0 0-.956-1.016 2.55 2.55 0 0 0-1.38-.379q-.759 0-1.38.379a2.6 2.6 0 0 0-.956 1.016q-.35.637-.349 1.456 0 .804.349 1.456.349.637.956 1.016a2.7 2.7 0 0 0 1.38.364M111.658 27.228q-1.259 0-2.245-.531a4.1 4.1 0 0 1-1.532-1.487q-.546-.956-.546-2.184 0-1.243.516-2.184a3.8 3.8 0 0 1 1.456-1.487q.926-.546 2.124-.546 1.183 0 2.033.531.85.516 1.289 1.441.455.91.455 2.108a.66.66 0 0 1-.197.485.7.7 0 0 1-.501.182h-6.113v-1.213h6.068l-.622.425a3.2 3.2 0 0 0-.303-1.35q-.288-.607-.819-.956c-.531-.349-.784-.349-1.289-.349q-.864 0-1.487.379a2.44 2.44 0 0 0-.925 1.047q-.319.652-.319 1.487c0 .835.126 1.052.379 1.487q.38.652 1.047 1.032c.667.38.956.379 1.532.379q.47 0 .956-.167.501-.182.804-.409a.8.8 0 0 1 .485-.167.65.65 0 0 1 .47.152q.258.228.273.501c.015.273-.071.339-.243.47q-.516.41-1.289.667a4.5 4.5 0 0 1-1.456.258zM104.566 27.183a.8.8 0 0 1-.561-.212.8.8 0 0 1-.212-.561v-4.338q0-.955-.47-1.411-.47-.47-1.229-.47-.789 0-1.305.546-.501.546-.501 1.395h-1.259q0-.986.425-1.729.425-.759 1.183-1.183.773-.425 1.76-.425.864 0 1.532.379c.668.379.789.627 1.032 1.123q.38.728.379 1.775v4.338a.8.8 0 0 1-.212.561.76.76 0 0 1-.561.212zm-10.118 0a.8.8 0 0 1-.561-.212.8.8 0 0 1-.212-.561v-6.75q0-.35.212-.561a.8.8 0 0 1 .561-.212q.35 0 .561.212c.211.212.212.329.212.561v6.75a.8.8 0 0 1-.212.561.76.76 0 0 1-.561.212m5.067 0a.8.8 0 0 1-.561-.212.8.8 0 0 1-.212-.561v-4.338q0-.955-.47-1.411-.47-.47-1.229-.47-.789 0-1.305.546c-.516.546-.516.829-.516 1.395h-.956q0-.986.394-1.729.395-.759 1.092-1.183c.697-.424.996-.425 1.593-.425q.865 0 1.532.379c.667.379.789.627 1.031 1.123q.38.728.379 1.775v4.338a.8.8 0 0 1-.212.561.76.76 0 0 1-.561.212zM88.477 27.228q-1.213 0-2.169-.546a4.15 4.15 0 0 1-1.487-1.502q-.531-.956-.531-2.154 0-1.228.531-2.184c.531-.956.839-1.133 1.456-1.487q.925-.546 2.124-.546.895 0 1.638.349.743.334 1.335 1.016.212.243.152.501c-.06.258-.152.324-.334.455a.6.6 0 0 1-.47.106.98.98 0 0 1-.47-.273q-.742-.789-1.851-.789-.774 0-1.365.364-.592.349-.925.986c-.333.637-.334.925-.334 1.502q0 .819.334 1.456.349.637.956 1.016.607.364 1.411.364.53 0 .925-.121a2.3 2.3 0 0 0 .743-.41.88.88 0 0 1 .501-.212.57.57 0 0 1 .455.137q.258.212.288.485a.55.55 0 0 1-.182.47q-1.092 1.017-2.73 1.016zM78.016 27.243q-1.047 0-1.881-.44a3.34 3.34 0 0 1-1.305-1.32q-.47-.864-.47-2.124v-3.732a.74.74 0 0 1 .212-.546q.228-.228.561-.227c.333.001.405.076.546.227a.71.71 0 0 1 .227.546v3.732q0 .85.319 1.411.319.546.865.819.546.258 1.229.258.652 0 1.153-.258.516-.258.819-.698c.303-.44.303-.622.303-.986h.956q0 .94-.47 1.699a3.26 3.26 0 0 1-1.259 1.198q-.788.44-1.805.44zm3.353-.075a.8.8 0 0 1-.561-.212.8.8 0 0 1-.212-.561V19.63q0-.35.212-.561a.8.8 0 0 1 .561-.212q.35 0 .561.212c.211.212.212.329.212.561v6.765q0 .334-.212.561a.76.76 0 0 1-.561.212m-3.034-9.39q-.774 0-1.395-.258a2.54 2.54 0 0 1-.986-.728 1.67 1.67 0 0 1-.364-1.047q0-.318.197-.531c.197-.213.293-.212.485-.212q.303 0 .485.212a.75.75 0 0 1 .197.531q0 .38.394.652.395.258.986.258c.591 0 .723-.086.986-.258q.394-.273.394-.652 0-.318.197-.531c.197-.213.293-.212.485-.212q.303 0 .485.212a.75.75 0 0 1 .197.531q0 .576-.364 1.047a2.54 2.54 0 0 1-.986.728q-.607.258-1.396.258zM67.9 27.228q-1.108 0-1.987-.546a4.07 4.07 0 0 1-1.396-1.502q-.501-.956-.501-2.154c0-1.198.182-1.517.546-2.154a4.146 4.146 0 0 1 3.641-2.063q1.184 0 2.124.561a4 4 0 0 1 1.487 1.502q.561.956.561 2.154h-.592q0 1.198-.516 2.154a3.95 3.95 0 0 1-1.38 1.502 3.7 3.7 0 0 1-1.987.546m.304-1.365q.774 0 1.38-.364a2.73 2.73 0 0 0 .956-1.016q.35-.652.349-1.456 0-.819-.349-1.456a2.57 2.57 0 0 0-.956-1.016 2.55 2.55 0 0 0-1.38-.379q-.759 0-1.38.379a2.7 2.7 0 0 0-.971 1.016q-.35.637-.349 1.456 0 .804.349 1.456.364.637.971 1.016a2.7 2.7 0 0 0 1.38.364m3.397 1.32a.8.8 0 0 1-.561-.212.8.8 0 0 1-.212-.561v-2.321l.288-1.608 1.259.546v3.383a.76.76 0 0 1-.228.561.74.74 0 0 1-.546.212M53.176 27.168a.8.8 0 0 1-.561-.212.8.8 0 0 1-.212-.561v-6.75q0-.35.212-.561a.8.8 0 0 1 .561-.212q.486 0 .819.47l3.14 4.535 3.14-4.535q.334-.47.819-.47.35 0 .561.212c.211.212.212.329.212.561v6.75q0 .334-.212.561a.76.76 0 0 1-.561.212.8.8 0 0 1-.561-.212.8.8 0 0 1-.212-.561v-5.522l.394.121-2.791 3.944q-.38.531-.819.531-.44-.015-.804-.531l-2.746-3.944.394-.121v5.522q0 .334-.212.561a.76.76 0 0 1-.561.212M113.865 12.059q-1.108 0-1.987-.546a4.06 4.06 0 0 1-1.395-1.502q-.501-.956-.501-2.154c0-1.198.182-1.517.546-2.154a4.146 4.146 0 0 1 3.641-2.063q1.184 0 2.124.561a4 4 0 0 1 1.487 1.502q.561.956.561 2.154h-.592q0 1.198-.516 2.154a3.95 3.95 0 0 1-1.38 1.502 3.7 3.7 0 0 1-1.987.546zm.303-1.365q.774 0 1.38-.364.607-.38.956-1.016.35-.652.349-1.456 0-.82-.349-1.456a2.57 2.57 0 0 0-.956-1.016 2.55 2.55 0 0 0-1.38-.379q-.759 0-1.38.379a2.7 2.7 0 0 0-.971 1.016q-.35.637-.349 1.456 0 .804.349 1.456.364.638.971 1.016a2.7 2.7 0 0 0 1.38.364m3.398 1.32a.8.8 0 0 1-.561-.212.8.8 0 0 1-.212-.561V8.92l.288-1.608 1.259.546v3.383q0 .334-.227.561a.74.74 0 0 1-.546.212zM109.175 11.817q-.197.182-.561.182-.35-.015-.546-.212l-3.686-3.959 3.474-3.883q.197-.212.546-.243.364-.03.561.152a.77.77 0 0 1 .258.485.57.57 0 0 1-.167.47l-2.745 2.943 2.912 3.125a.64.64 0 0 1 .197.47q0 .258-.243.47m-6.007.197a.7.7 0 0 1-.531-.212.83.83 0 0 1-.197-.561V4.476q0-.35.197-.561c.197-.211.308-.212.531-.212q.35 0 .561.212a.73.73 0 0 1 .228.561v2.533h1.942v1.426h-1.942v2.806a.76.76 0 0 1-.228.561.76.76 0 0 1-.561.212M95.813 12.059q-1.137 0-2.017-.531a3.9 3.9 0 0 1-1.365-1.487q-.501-.955-.501-2.184 0-1.243.531-2.184a3.9 3.9 0 0 1 1.487-1.487q.94-.546 2.169-.546 1.213 0 2.154.546a3.8 3.8 0 0 1 1.471 1.487q.546.94.546 2.184h-.895q0 1.229-.47 2.184a3.7 3.7 0 0 1-1.259 1.487q-.804.531-1.851.531m.273 3.383q-1.078 0-2.017-.425c-.939-.425-1.158-.698-1.593-1.244q-.197-.258-.152-.531a.7.7 0 0 1 .303-.44q.273-.182.561-.121.303.06.485.303.41.516 1.031.804c.621.288.885.288 1.411.288q.728 0 1.335-.349.622-.349.986-1.031c.364-.682.364-1.011.364-1.669V8.873l.501-1.335.986.319v3.276q0 1.198-.531 2.169a4 4 0 0 1-1.487 1.562q-.94.576-2.184.576zm.03-4.748q.789 0 1.395-.364c.606-.364.718-.576.941-1.001q.35-.637.349-1.471c-.001-.834-.116-1.047-.349-1.471q-.334-.653-.941-1.016c-.607-.363-.87-.364-1.395-.364q-.789 0-1.396.364c-.607.364-.723.581-.956 1.016q-.35.637-.349 1.471c.001.834.116 1.047.349 1.471q.349.637.956 1.001c.607.364.87.364 1.396.364M86.034 12.059q-1.229 0-2.169-.531a4.03 4.03 0 0 1-1.487-1.487q-.531-.955-.531-2.184 0-1.243.531-2.184a3.9 3.9 0 0 1 1.487-1.487q.94-.546 2.169-.546 1.213 0 2.154.546a3.8 3.8 0 0 1 1.471 1.487q.546.94.546 2.184 0 1.229-.531 2.184a3.9 3.9 0 0 1-1.471 1.487q-.94.531-2.169.531m0-1.365q.789 0 1.396-.364c.607-.364.718-.576.941-1.001q.35-.637.349-1.471c-.001-.834-.116-1.047-.349-1.471q-.334-.653-.941-1.016c-.607-.363-.87-.364-1.396-.364q-.789 0-1.395.364c-.606.364-.723.581-.956 1.016q-.35.637-.349 1.471c.001.834.116 1.047.349 1.471q.349.637.956 1.001c.607.364.87.364 1.395.364M76.631 3.716q.227 0 .41.121c.183.121.217.207.288.379l3.125 6.781q.136.303.03.546a.72.72 0 0 1-.364.349q-.334.151-.576.076c-.242-.075-.298-.177-.41-.379l-2.852-6.477h.774l-2.943 6.477a.68.68 0 0 1-.409.379q-.258.076-.577-.076a.85.85 0 0 1-.409-.364q-.106-.228.045-.531l3.14-6.781q.227-.501.728-.501zM67.197 12.059q-1.228 0-2.169-.531a4.03 4.03 0 0 1-1.487-1.487q-.531-.955-.531-2.184 0-1.243.531-2.184a3.9 3.9 0 0 1 1.487-1.487q.94-.546 2.169-.546 1.214 0 2.154.546a3.8 3.8 0 0 1 1.471 1.487q.546.94.546 2.184 0 1.229-.531 2.184a3.9 3.9 0 0 1-1.471 1.487q-.94.531-2.169.531m0-1.365q.789 0 1.396-.364c.607-.364.718-.576.94-1.001q.35-.637.349-1.471c-.001-.834-.116-1.047-.349-1.471q-.334-.653-.94-1.016c-.606-.363-.87-.364-1.396-.364s-.991.121-1.396.364a2.6 2.6 0 0 0-.956 1.016q-.35.637-.349 1.471c.001.834.116 1.047.349 1.471q.349.637.956 1.001c.607.364.87.364 1.396.364M57.866 12.15a5.9 5.9 0 0 1-2.306-.455 6 6 0 0 1-1.866-1.289 6.3 6.3 0 0 1-1.244-1.942 6.4 6.4 0 0 1-.44-2.397q0-1.274.44-2.366a6.1 6.1 0 0 1 1.244-1.926Q54.498.941 55.56.47C56.622-.001 57.036 0 57.866 0q1.168 0 2.002.303.85.303 1.699 1.001a.7.7 0 0 1 .182.197.4.4 0 0 1 .091.197q.03.091.03.228a.64.64 0 0 1-.212.485.82.82 0 0 1-.485.212.83.83 0 0 1-.561-.197 4.4 4.4 0 0 0-1.168-.743q-.591-.258-1.578-.258-.895 0-1.684.364c-.789.364-.991.576-1.395 1.001q-.592.637-.925 1.487a4.8 4.8 0 0 0-.334 1.79q0 .97.334 1.82.334.835.925 1.471.607.637 1.395 1.001a4.1 4.1 0 0 0 1.684.349q.774 0 1.456-.258.697-.273 1.335-.743.273-.197.531-.167.273.015.455.212.182.181.182.516a.8.8 0 0 1-.061.303.9.9 0 0 1-.182.258 6 6 0 0 1-1.76.986 5.7 5.7 0 0 1-1.957.334z"/>
    </symbol>
  </defs>
</svg>