<svg aria-hidden="true" style="position: absolute; width: 0; height: 0; overflow: hidden;" version="1.1" xmlns="http://www.w3.org/2000/svg" xmlns:xlink="http://www.w3.org/1999/xlink">
<defs>
<symbol id="icon-arrow_up" viewBox="0 0 32 32">
<path d="M17.136 9.46v16.27c0 0.326-0.108 0.597-0.323 0.812s-0.486 0.323-0.812 0.323-0.597-0.108-0.812-0.323c-0.215-0.215-0.323-0.486-0.323-0.812v-16.27l-7.335 7.336c-0.227 0.227-0.494 0.341-0.801 0.344s-0.575-0.109-0.803-0.336c-0.229-0.227-0.342-0.495-0.339-0.803s0.117-0.577 0.344-0.805l9.267-9.267c0.123-0.121 0.25-0.21 0.383-0.265s0.273-0.083 0.422-0.083 0.289 0.028 0.421 0.083c0.132 0.055 0.259 0.143 0.382 0.265l9.267 9.275c0.232 0.234 0.348 0.503 0.348 0.806s-0.117 0.567-0.35 0.794c-0.227 0.226-0.492 0.34-0.795 0.34s-0.568-0.113-0.794-0.34l-7.343-7.344z"></path>
</symbol>
</defs>
</svg>
