<svg width="48" height="48" viewBox="0 0 48 48" fill="none" xmlns="http://www.w3.org/2000/svg">
<path d="M24 1C36.7025 1 47 11.2975 47 24C47 36.7025 36.7025 47 24 47C11.2975 47 1 36.7025 1 24C1 11.2975 11.2975 1 24 1Z" fill="#F5FDFD"/>
<path d="M24 1C36.7025 1 47 11.2975 47 24C47 36.7025 36.7025 47 24 47C11.2975 47 1 36.7025 1 24C1 11.2975 11.2975 1 24 1Z" stroke="#080C0C" stroke-width="2"/>
<path d="M19.095 24.8518L24.5968 30.3533C24.7668 30.5236 24.8527 30.7236 24.8545 30.9533C24.8565 31.1829 24.7726 31.3836 24.6028 31.5553C24.4328 31.7274 24.2322 31.8125 24.001 31.8105C23.7699 31.8085 23.5686 31.7226 23.3973 31.5528L16.4473 24.6028C16.3563 24.5108 16.2901 24.4151 16.2488 24.3158C16.2073 24.2163 16.1865 24.1108 16.1865 23.9993C16.1865 23.8878 16.2073 23.7825 16.2488 23.6835C16.2901 23.5844 16.3563 23.4889 16.4473 23.3973L23.4033 16.4413C23.5791 16.2714 23.7805 16.1865 24.0075 16.1865C24.2344 16.1865 24.4328 16.2714 24.6028 16.4413C24.7726 16.6153 24.8575 16.816 24.8575 17.0435C24.8575 17.2712 24.7726 17.4703 24.6028 17.6408L19.095 23.1483H31.2978C31.5419 23.1483 31.7459 23.2291 31.9098 23.3908C32.0736 23.5524 32.1555 23.7555 32.1555 24C32.1555 24.2445 32.0736 24.4476 31.9098 24.6093C31.7459 24.7709 31.5419 24.8518 31.2978 24.8518H19.095Z" fill="#080C0C"/>
</svg>
