<svg width="27" height="18" viewBox="0 0 27 18" fill="none" xmlns="http://www.w3.org/2000/svg">
  <path d="M23.0393 15.0777C23.5776 15.3566 24.0311 15.267 24.3999 14.8087C24.7687 14.3505 24.8135 13.8723 24.5344 13.3742L22.4114 9.36939L20.7967 13.7627L23.0393 15.0777ZM16.7002 13.8225H18.8076L21.6938 6.58995C21.8134 6.31101 21.8582 6.03706 21.8283 5.76808C21.7984 5.4991 21.634 5.29488 21.3349 5.15541L18.8531 4.0795C18.574 3.94003 18.2949 3.94003 18.0158 4.0795C17.7368 4.21897 17.5872 4.42817 17.5673 4.70711L16.7002 13.8225ZM7.84205 13.8225H9.91245L9.0752 4.70711C9.05527 4.40825 8.92071 4.18908 8.67153 4.04961C8.42234 3.91014 8.12831 3.9201 7.78942 4.0795L5.42718 5.09563C5.16803 5.19526 5.0235 5.4194 4.9936 5.76808C4.9637 6.11675 4.99859 6.43056 5.09826 6.7095L7.84205 13.8225ZM3.60317 15.0777L5.8458 13.7627L4.23111 9.36939L2.10808 13.5236C1.82899 14.0815 1.8888 14.5348 2.28749 14.8834C2.68618 15.2321 3.12474 15.2969 3.60317 15.0777ZM11.7066 13.8225H14.9061L15.8928 2.94381C15.9327 2.66487 15.8579 2.43076 15.6685 2.24148C15.4792 2.0522 15.2449 1.95756 14.9659 1.95756H11.6767C11.3577 1.95756 11.1185 2.0522 10.959 2.24148C10.7995 2.43076 10.7298 2.66487 10.7497 2.94381L11.7066 13.8225ZM2.94533 17.0651C2.12024 17.0651 1.42303 16.7708 0.853697 16.182C0.284566 15.593 0 14.8862 0 14.0616C0 13.8081 0.0448527 13.5609 0.134558 13.3198C0.224264 13.0789 0.323737 12.8417 0.432978 12.6082L3.16242 7.32277C2.8634 6.51245 2.84426 5.7106 3.105 4.91721C3.36555 4.12403 3.87139 3.56326 4.62252 3.23491L7.10437 2.21877C7.42332 2.09922 7.74726 2.02829 8.07618 2.00598C8.4051 1.98366 8.71149 2.05977 8.99536 2.23431C9.1357 1.58239 9.45465 1.04702 9.95222 0.628213C10.4496 0.209405 11.0244 0 11.6767 0H14.9659C15.6181 0 16.1929 0.194462 16.6903 0.583383C17.1879 0.972305 17.5068 1.48276 17.6472 2.11476C17.9462 2 18.2564 1.95377 18.5777 1.97609C18.899 1.9984 19.2092 2.0793 19.5082 2.21877L22.02 3.23491C22.7863 3.52819 23.3059 4.06525 23.5788 4.84608C23.8519 5.62711 23.8238 6.3929 23.4945 7.14345L26.2095 12.5783C26.2941 12.807 26.3874 13.0332 26.4894 13.2567C26.5915 13.4801 26.6425 13.7085 26.6425 13.942C26.6425 14.8217 26.328 15.5622 25.6991 16.1635C25.07 16.7646 24.313 17.0651 23.4281 17.0651C23.1992 17.0651 22.9829 17.0191 22.7792 16.9271C22.5757 16.835 22.3694 16.7468 22.1605 16.6623L20.3652 15.78H6.24739L4.54896 16.6623C4.2954 16.7667 4.03694 16.8599 3.77361 16.942C3.51007 17.0241 3.23398 17.0651 2.94533 17.0651Z" fill="#080C0C" />
</svg>